# xmcd
#
# Track frame offsets: 
#        150
#        3463
#        25523
#        51477
#        80581
#        113446
#        131872
#        153164
#        180502
#        195463
#        216360
#        244604
#        278887
#        294179
#        324591
#
# Disc length: 4456 seconds
#
# Revision: 0
# Processed by: cddbd v1.5.2PL0 Copyright (c) Steve Scherf et al.
# Submitted via: ExactAudioCopy v0.95b4
#
DISCID=c811660f
DTITLE=OctavePussY - Here_are_the_results_of_the_universal_jury
DYEAR=2005
DGENRE=Funk
TTITLE0=A funktroduction (guestappearance by Mr. Danny Ray)
TTITLE1=Password: love funk
TTITLE2=Plastic woman - plastic man =plastic people
TTITLE3=Ready 2 rock
TTITLE4=My profession (guestappearance by the P-Funk All Stars)
TTITLE5=Here_are_the_results_of_the_universal_jury
TTITLE6=Masterdate
TTITLE7=At the funky saloon (guestappearance by Slapbak and Stevie Salas
TTITLE7=)
TTITLE8=Dance all nite
TTITLE9=Step to it and kick the ball
TTITLE10=Walk the stalkin' walk
TTITLE11=Are u pumpable (guestappearance by the Soul Generals)
TTITLE12=Jack - the mp3-ripper
TTITLE13=Somebody got to smell the sh*t (guestappearance by Miss Hope 
TTITLE13=Clayburn)
TTITLE14=Keep the funk alive
EXTD=
EXTT0=
EXTT1=
EXTT2=
EXTT3=
EXTT4=
EXTT5=
EXTT6=
EXTT7=
EXTT8=
EXTT9=
EXTT10=
EXTT11=
EXTT12=
EXTT13=
EXTT14=
PLAYORDER=
